<svg xmlns="http://www.w3.org/2000/svg" viewBox="0 0 213.2 388.06"><defs><style>.cls-1{fill:#fcfaf0;}</style></defs><title>资源 1</title><g id="图层_2" data-name="图层 2"><g id="图层_1-2" data-name="图层 1"><path class="cls-1" d="M124.5,388.06H39.9V182.36H.4c-.1-2.2-.3-4-.3-5.8,0-16.8.2-33.7-.1-50.5-.1-5,1.6-6.2,6.3-6,9.3.3,18.7-.1,28,.2,4.3.1,5.7-.9,5.7-5.5,0-13.8.1-27.7,1.2-41.4,1.9-24.8,13-44.8,33.9-58.8,11.4-7.6,24.6-11.4,38-12.8A275.35,275.35,0,0,1,159.4.46c11.4.8,22.7,4.8,34,7.7,6.4,1.6,12.7,3.8,19.8,5.9-5.1,19.5-10.2,38.6-15.3,58.2-4.9-2.6-9.2-4.7-13.4-7-12.9-7.1-26.4-7.6-40.2-3.9-9,2.4-16.1,7.9-17.3,17.4-1.7,12.8-1.9,25.8-2.6,38.8-.2,3.4,2.7,2.7,4.7,2.7h62.7c-1.9,8.3-3.5,15.8-5.3,23.4-2.7,11.5-5.8,22.9-8.2,34.5-.7,3.4-1.9,4.3-5.2,4.2-14.2-.1-28.3-.1-42.5-.1h-6.2C124.5,250.86,124.5,319.26,124.5,388.06Z"/></g></g></svg>