<svg xmlns="http://www.w3.org/2000/svg" viewBox="0 0 149.07 149.23"><defs><style>.cls-1{fill:#fcfaf0;}</style></defs><title>icon-ins</title><g id="图层_2" data-name="图层 2"><g id="图层_1-2" data-name="图层 1"><path class="cls-1" d="M148.91,74.68c-.6,13.1.8,26.3-.8,39.3-2.5,20.3-17.9,34.3-38.4,34.8-23.2.6-46.5.6-69.7,0-22.7-.6-39.1-17.2-39.6-39.9s-.6-45.5,0-68.2C1,17.38,17.51,1,40.81.38q33.9-.75,67.8,0c23.1.6,39.4,17,40.2,40.1.5,11.5.1,22.9.1,34.2Zm-74.3,60.8h0c10.7.1,21.5.4,32.2,0,18.1-.8,28.2-10.7,28.6-28.9.5-21.6.4-43.2,0-64.8-.4-16.7-10.7-27.3-27.3-27.7-22.3-.5-44.7-.5-67,0-16.2.4-26.6,11-27,27.2q-.75,33.15,0,66.3c.4,17,10.7,27.1,27.6,27.8C52.61,135.88,63.61,135.48,74.61,135.48Z"/><path class="cls-1" d="M113.11,74.78a38.45,38.45,0,0,1-76.9.3c0-21.9,16.9-38.9,38.5-38.8A38.18,38.18,0,0,1,113.11,74.78Zm-13.6-.1a24.85,24.85,0,1,0-24.9,25A24.8,24.8,0,0,0,99.51,74.68Z"/><path class="cls-1" d="M123.61,34.78a9,9,0,0,1-9.1,9,9.28,9.28,0,0,1-8.9-9,9,9,0,0,1,9.1-9A8.59,8.59,0,0,1,123.61,34.78Z"/></g></g></svg>