<svg xmlns="http://www.w3.org/2000/svg" viewBox="0 0 94.9 77.85"><defs><style>.cls-1{fill:#fcfaf0;}</style></defs><title>icon-twitter</title><g id="图层_2" data-name="图层 2"><g id="图层_1-2" data-name="图层 1"><path class="cls-1" d="M84.8,12.07c2.8.2,5.3-.9,8-1.7.7-.2,1.3-.7,2.1-.5h0a30.93,30.93,0,0,1-8.2,8.7,2.59,2.59,0,0,0-1.1,2.3c-.1,16.8-6.1,31.1-18.3,42.7a50.83,50.83,0,0,1-28.1,13.5,56.92,56.92,0,0,1-36-5.7A19.5,19.5,0,0,1,0,69.27c10.3.6,19.6-1.8,27.9-8.1-1.4-.8-2.9-.5-4.2-.9a19.75,19.75,0,0,1-13.2-11.5c-.6-1.3-.1-1.6,1.1-1.4a14.62,14.62,0,0,0,6.8-.4c-9.6-3.1-14.7-9.4-15.3-19.4,1.6.6,2.9,1.1,4.2,1.5a10.23,10.23,0,0,0,4.4.6,21.15,21.15,0,0,1-8-11.8A19.43,19.43,0,0,1,5.1,5.07c.5-1.2,1-1.3,1.9-.3A54.07,54.07,0,0,0,23.8,18a56.85,56.85,0,0,0,21.8,6.1c1.1.1.9-.4.8-1.1-.6-4.9,0-9.6,2.8-13.8a19.66,19.66,0,0,1,30-3.9,2.53,2.53,0,0,0,2.7.6,45.43,45.43,0,0,0,8.7-3.2,21.57,21.57,0,0,1,2-.9A18.28,18.28,0,0,1,86.1,11c-.6.5-1.1.6-1.3,1.1a.1.1,0,0,0-.1.1v.1C84.7,12.17,84.7,12.17,84.8,12.07Z"/></g></g></svg>