<?xml version="1.0" encoding="UTF-8"?>
<svg width="18px" height="18px" viewBox="0 0 18 18" version="1.1" xmlns="http://www.w3.org/2000/svg" xmlns:xlink="http://www.w3.org/1999/xlink">
    <!-- Generator: Sketch 42 (36781) - http://www.bohemiancoding.com/sketch -->
    <title>icon-address</title>
    <desc>Created with Sketch.</desc>
    <defs></defs>
    <g id="Page-1" stroke="none" stroke-width="1" fill="none" fill-rule="evenodd">
        <g id="beer-pc" transform="translate(-658.000000, -1204.000000)" stroke="#FCFAF0">
            <g id="icon-address" transform="translate(659.000000, 1205.000000)">
                <path d="M7.93307523,0.000451401217 C7.93614625,0.000150775636 7.93923627,8.23838964e-19 7.94234538,0 C7.96142896,0 7.98064813,3.15518508e-05 8,9.63144858e-05 C8.01935187,3.15518508e-05 8.03857104,0 8.05765462,0 C8.06076364,8.23815621e-19 8.06385249,0.000150767092 8.06692125,0.000451375662 C10.7906304,0.0202581855 16,0.714488471 16,6.5 C16,12.3747242 7.94310183,15.9996597 7.94234544,16 C7.94219889,15.9999331 -1.63424371e-13,12.3749458 -1.13686838e-13,6.5 C-1.13686838e-13,0.714490959 5.20936515,0.0202587826 7.93307523,0.000451401217 Z M8.5,10 C10.4329966,10 12,8.43299662 12,6.5 C12,4.56700338 10.4329966,3 8.5,3 C6.56700338,3 5,4.56700338 5,6.5 C5,8.43299662 6.56700338,10 8.5,10 Z" id="Combined-Shape"></path>
            </g>
        </g>
    </g>
</svg>