<?xml version="1.0" encoding="utf-8"?>
<!-- Generator: Adobe Illustrator 21.0.2, SVG Export Plug-In . SVG Version: 6.00 Build 0)  -->
<svg version="1.1" id="图层_1" xmlns="http://www.w3.org/2000/svg" xmlns:xlink="http://www.w3.org/1999/xlink" x="0px" y="0px"
	 viewBox="0 0 1280 1024" style="enable-background:new 0 0 1280 1024;" xml:space="preserve">
<style type="text/css">
	.st0{fill:#331515;}
</style>
<g>
	<path class="st0" d="M451.6,514.6c2.8,0.2,5.3-0.9,8-1.7c0.7-0.2,1.3-0.7,2.1-0.5l0,0c-2.1,3.5-5,6.3-8.2,8.7
		c-0.8,0.6-1.1,1.3-1.1,2.3c-0.1,16.8-6.1,31.1-18.3,42.7c-7.9,7.5-17.4,11.9-28.1,13.5c-12.6,2-24.6,0.2-36-5.7
		c-1.1-0.6-2.1-1.2-3.2-2.1c10.3,0.6,19.6-1.8,27.9-8.1c-1.4-0.8-2.9-0.5-4.2-0.9c-6.2-1.8-10.6-5.6-13.2-11.5
		c-0.6-1.3-0.1-1.6,1.1-1.4c2.1,0.5,4.2,0.2,6.8-0.4c-9.6-3.1-14.7-9.4-15.3-19.4c1.6,0.6,2.9,1.1,4.2,1.5c1.3,0.4,2.7,0.8,4.4,0.6
		c-4.1-3.2-6.8-7-8-11.8c-1.1-4.5-0.4-8.7,1.4-12.8c0.5-1.2,1-1.3,1.9-0.3c4.7,5.5,10.3,9.9,16.8,13.2c6.8,3.5,14.1,5.5,21.8,6.1
		c1.1,0.1,0.9-0.4,0.8-1.1c-0.6-4.9,0-9.6,2.8-13.8c6.8-10.4,20.9-12.3,30-3.9c0.9,0.8,1.7,0.9,2.7,0.6c3-0.8,5.9-1.8,8.7-3.2
		c0.5-0.3,1.1-0.5,2-0.9c-1.2,4.1-3.6,6.8-6.5,9.2C452.3,514,451.8,514.1,451.6,514.6c0,0-0.1,0-0.1,0.1c0,0,0,0.1,0,0.1
		C451.5,514.7,451.5,514.7,451.6,514.6z"/>
</g>
</svg>
