<?xml version="1.0" encoding="utf-8"?>
<!-- Generator: Adobe Illustrator 21.0.2, SVG Export Plug-In . SVG Version: 6.00 Build 0)  -->
<svg version="1.1" id="图层_1" xmlns="http://www.w3.org/2000/svg" xmlns:xlink="http://www.w3.org/1999/xlink" x="0px" y="0px"
	 viewBox="0 0 1280 1024" style="enable-background:new 0 0 1280 1024;" xml:space="preserve">
<g>
	<path d="M338.2,785.7c-28.7,0-56.3,0-84.6,0c0-68.5,0-136.9,0-205.7c-13.4,0-26.2,0-39.5,0c-0.1-2.2-0.3-4-0.3-5.8
		c0-16.8,0.2-33.7-0.1-50.5c-0.1-5,1.6-6.2,6.3-6c9.3,0.3,18.7-0.1,28,0.2c4.3,0.1,5.7-0.9,5.7-5.5c0-13.8,0.1-27.7,1.2-41.4
		c1.9-24.8,13-44.8,33.9-58.8c11.4-7.6,24.6-11.4,38-12.8c15.3-1.6,30.9-2.3,46.3-1.3c11.4,0.8,22.7,4.8,34,7.7
		c6.4,1.6,12.7,3.8,19.8,5.9c-5.1,19.5-10.2,38.6-15.3,58.2c-4.9-2.6-9.2-4.7-13.4-7c-12.9-7.1-26.4-7.6-40.2-3.9
		c-9,2.4-16.1,7.9-17.3,17.4c-1.7,12.8-1.9,25.8-2.6,38.8c-0.2,3.4,2.7,2.7,4.7,2.7c18.5,0,37,0,55.5,0c2.1,0,4.3,0,7.2,0
		c-1.9,8.3-3.5,15.8-5.3,23.4c-2.7,11.5-5.8,22.9-8.2,34.5c-0.7,3.4-1.9,4.3-5.2,4.2c-14.2-0.1-28.3-0.1-42.5-0.1
		c-1.8,0-3.6,0-6.2,0C338.2,648.5,338.2,716.9,338.2,785.7z"/>
</g>
</svg>
