<?xml version="1.0" encoding="utf-8"?>
<!-- Generator: Adobe Illustrator 21.0.2, SVG Export Plug-In . SVG Version: 6.00 Build 0)  -->
<svg version="1.1" id="图层_1" xmlns="http://www.w3.org/2000/svg" xmlns:xlink="http://www.w3.org/1999/xlink" x="0px" y="0px"
	 viewBox="0 0 1280 1024" style="enable-background:new 0 0 1280 1024;" xml:space="preserve">
<style type="text/css">
	.st0{fill:#FFFFFF;}
</style>
<g>
	<path d="M556,577.4c-0.6,13.1,0.8,26.3-0.8,39.3c-2.5,20.3-17.9,34.3-38.4,34.8c-23.2,0.6-46.5,0.6-69.7,0
		c-22.7-0.6-39.1-17.2-39.6-39.9c-0.5-22.7-0.6-45.5,0-68.2c0.6-23.3,17.1-39.7,40.4-40.3c22.6-0.5,45.2-0.5,67.8,0
		c23.1,0.6,39.4,17,40.2,40.1C556.4,554.7,556,566.1,556,577.4C556.5,577.4,555.6,577.4,556,577.4z M481.7,638.2
		C481.7,638.2,481.7,638.2,481.7,638.2c10.7,0.1,21.5,0.4,32.2,0c18.1-0.8,28.2-10.7,28.6-28.9c0.5-21.6,0.4-43.2,0-64.8
		c-0.4-16.7-10.7-27.3-27.3-27.7c-22.3-0.5-44.7-0.5-67,0c-16.2,0.4-26.6,11-27,27.2c-0.5,22.1-0.5,44.2,0,66.3
		c0.4,17,10.7,27.1,27.6,27.8C459.7,638.6,470.7,638.2,481.7,638.2z"/>
	<path d="M520.2,577.5c0,21.4-17.2,38.4-38.7,38.3c-21.1-0.1-38.1-17-38.2-38c0-21.9,16.9-38.9,38.5-38.8
		C503.3,539.1,520.2,556,520.2,577.5z M506.6,577.4c0-14-11-24.9-25-24.8c-14,0.1-24.8,11.1-24.7,25.1c0.1,13.7,11.1,24.7,24.8,24.7
		C495.7,602.3,506.6,591.3,506.6,577.4z"/>
	<path d="M530.7,537.5c0,5-4.2,9.1-9.1,9c-4.8-0.1-8.8-4.2-8.9-9c-0.1-4.9,4-9,9.1-9C527,528.5,530.7,532.2,530.7,537.5z"/>
	<path class="st0" d="M506.6,577.4c0,13.9-11,24.9-24.9,24.9c-13.8,0-24.8-10.9-24.8-24.7c-0.1-14,10.8-25,24.7-25.1
		C495.6,552.5,506.6,563.4,506.6,577.4z"/>
</g>
</svg>
